<mxfile host="app.diagrams.net" modified="2023-08-16T10:19:09.680Z" agent="5.0 (Macintosh; Intel Mac OS X 10_15_7) AppleWebKit/537.36 (KHTML, like Gecko) Chrome/115.0.0.0 Safari/537.36" version="20.6.0" etag="sH_w_N_9gOGSFkQEvy8i" type="github">
  <diagram id="eAtZAHFtaqILBbwQnUSS" name="페이지-1">
    <mxGraphModel dx="786" dy="540" grid="1" gridSize="10" guides="1" tooltips="1" connect="1" arrows="1" fold="1" page="1" pageScale="1" pageWidth="827" pageHeight="1169" math="0" shadow="0">
      <root>
        <mxCell id="0" />
        <mxCell id="1" parent="0" />
        <mxCell id="p6qQuTiOkQc0RsWlat7f-35" style="edgeStyle=none;rounded=0;orthogonalLoop=1;jettySize=auto;html=1;exitX=1;exitY=0.3333333333333333;exitDx=0;exitDy=0;exitPerimeter=0;entryX=0;entryY=0.5;entryDx=0;entryDy=0;" edge="1" parent="1" source="p6qQuTiOkQc0RsWlat7f-1" target="p6qQuTiOkQc0RsWlat7f-3">
          <mxGeometry relative="1" as="geometry" />
        </mxCell>
        <mxCell id="p6qQuTiOkQc0RsWlat7f-36" style="edgeStyle=none;rounded=0;orthogonalLoop=1;jettySize=auto;html=1;entryX=0;entryY=0.5;entryDx=0;entryDy=0;" edge="1" parent="1" source="p6qQuTiOkQc0RsWlat7f-1" target="p6qQuTiOkQc0RsWlat7f-5">
          <mxGeometry relative="1" as="geometry" />
        </mxCell>
        <mxCell id="p6qQuTiOkQc0RsWlat7f-1" value="사용자" style="shape=umlActor;verticalLabelPosition=bottom;verticalAlign=top;html=1;outlineConnect=0;" vertex="1" parent="1">
          <mxGeometry x="70" y="150" width="30" height="60" as="geometry" />
        </mxCell>
        <mxCell id="p6qQuTiOkQc0RsWlat7f-2" value="게시판 서비스" style="shape=umlFrame;whiteSpace=wrap;html=1;width=130;height=15;" vertex="1" parent="1">
          <mxGeometry x="150" y="40" width="610" height="550" as="geometry" />
        </mxCell>
        <mxCell id="p6qQuTiOkQc0RsWlat7f-31" value="&amp;lt;&amp;lt;include&amp;gt;&amp;gt;" style="rounded=0;orthogonalLoop=1;jettySize=auto;html=1;exitX=1;exitY=0.5;exitDx=0;exitDy=0;entryX=0;entryY=0.5;entryDx=0;entryDy=0;dashed=1;" edge="1" parent="1" source="p6qQuTiOkQc0RsWlat7f-3" target="p6qQuTiOkQc0RsWlat7f-13">
          <mxGeometry relative="1" as="geometry" />
        </mxCell>
        <mxCell id="p6qQuTiOkQc0RsWlat7f-3" value="회원가입" style="rounded=1;whiteSpace=wrap;html=1;arcSize=40;fontColor=#000000;fillColor=#ffffc0;strokeColor=#ff0000;" vertex="1" parent="1">
          <mxGeometry x="220" y="110" width="120" height="40" as="geometry" />
        </mxCell>
        <mxCell id="p6qQuTiOkQc0RsWlat7f-34" value="&amp;lt;&amp;lt;extend&amp;gt;&amp;gt;" style="edgeStyle=none;rounded=0;orthogonalLoop=1;jettySize=auto;html=1;entryX=0.5;entryY=1;entryDx=0;entryDy=0;dashed=1;" edge="1" parent="1" source="p6qQuTiOkQc0RsWlat7f-5" target="p6qQuTiOkQc0RsWlat7f-3">
          <mxGeometry relative="1" as="geometry" />
        </mxCell>
        <mxCell id="p6qQuTiOkQc0RsWlat7f-5" value="로그인" style="rounded=1;whiteSpace=wrap;html=1;arcSize=40;fontColor=#000000;fillColor=#ffffc0;strokeColor=#ff0000;" vertex="1" parent="1">
          <mxGeometry x="220" y="230" width="120" height="40" as="geometry" />
        </mxCell>
        <mxCell id="p6qQuTiOkQc0RsWlat7f-6" value="게시판보기" style="rounded=1;whiteSpace=wrap;html=1;arcSize=40;fontColor=#000000;fillColor=#ffffc0;strokeColor=#ff0000;" vertex="1" parent="1">
          <mxGeometry x="320" y="290" width="120" height="40" as="geometry" />
        </mxCell>
        <mxCell id="p6qQuTiOkQc0RsWlat7f-8" value="댓글 보기" style="rounded=1;whiteSpace=wrap;html=1;arcSize=40;fontColor=#000000;fillColor=#ffffc0;strokeColor=#ff0000;" vertex="1" parent="1">
          <mxGeometry x="220" y="492" width="120" height="40" as="geometry" />
        </mxCell>
        <mxCell id="p6qQuTiOkQc0RsWlat7f-9" value="게시글보기" style="rounded=1;whiteSpace=wrap;html=1;arcSize=40;fontColor=#000000;fillColor=#ffffc0;strokeColor=#ff0000;" vertex="1" parent="1">
          <mxGeometry x="220" y="380" width="120" height="40" as="geometry" />
        </mxCell>
        <mxCell id="p6qQuTiOkQc0RsWlat7f-10" value="게시글 입력, 수정, 삭제" style="rounded=1;whiteSpace=wrap;html=1;arcSize=40;fontColor=#000000;fillColor=#ffffc0;strokeColor=#ff0000;" vertex="1" parent="1">
          <mxGeometry x="400" y="420" width="120" height="40" as="geometry" />
        </mxCell>
        <mxCell id="p6qQuTiOkQc0RsWlat7f-11" value="댓글 입력, 수정, 삭제" style="rounded=1;whiteSpace=wrap;html=1;arcSize=40;fontColor=#000000;fillColor=#ffffc0;strokeColor=#ff0000;" vertex="1" parent="1">
          <mxGeometry x="400" y="490" width="120" height="40" as="geometry" />
        </mxCell>
        <mxCell id="p6qQuTiOkQc0RsWlat7f-12" value="게시판정렬" style="rounded=1;whiteSpace=wrap;html=1;arcSize=40;fontColor=#000000;fillColor=#ffffc0;strokeColor=#ff0000;" vertex="1" parent="1">
          <mxGeometry x="532" y="250" width="120" height="40" as="geometry" />
        </mxCell>
        <mxCell id="p6qQuTiOkQc0RsWlat7f-13" value="인증" style="rounded=1;whiteSpace=wrap;html=1;arcSize=40;fontColor=#000000;fillColor=#ffffc0;strokeColor=#ff0000;" vertex="1" parent="1">
          <mxGeometry x="510" y="70" width="120" height="40" as="geometry" />
        </mxCell>
        <mxCell id="p6qQuTiOkQc0RsWlat7f-32" value="&amp;lt;&amp;lt;extend&amp;gt;&amp;gt;" style="edgeStyle=none;rounded=0;orthogonalLoop=1;jettySize=auto;html=1;entryX=1;entryY=0.5;entryDx=0;entryDy=0;dashed=1;" edge="1" parent="1" source="p6qQuTiOkQc0RsWlat7f-14" target="p6qQuTiOkQc0RsWlat7f-3">
          <mxGeometry relative="1" as="geometry" />
        </mxCell>
        <mxCell id="p6qQuTiOkQc0RsWlat7f-14" value="로그인실패" style="rounded=1;whiteSpace=wrap;html=1;arcSize=40;fontColor=#000000;fillColor=#ffffc0;strokeColor=#ff0000;" vertex="1" parent="1">
          <mxGeometry x="510" y="140" width="120" height="40" as="geometry" />
        </mxCell>
        <mxCell id="p6qQuTiOkQc0RsWlat7f-15" value="DB" style="shape=module;align=left;spacingLeft=20;align=center;verticalAlign=top;" vertex="1" parent="1">
          <mxGeometry x="780" y="170" width="100" height="50" as="geometry" />
        </mxCell>
        <mxCell id="p6qQuTiOkQc0RsWlat7f-38" value="&amp;lt;&amp;lt;extend&amp;gt;&amp;gt;" style="edgeStyle=none;rounded=0;orthogonalLoop=1;jettySize=auto;html=1;entryX=0.5;entryY=1;entryDx=0;entryDy=0;dashed=1;" edge="1" parent="1" source="p6qQuTiOkQc0RsWlat7f-6" target="p6qQuTiOkQc0RsWlat7f-5">
          <mxGeometry relative="1" as="geometry">
            <mxPoint x="520" y="162.17391304347825" as="sourcePoint" />
            <mxPoint x="350" y="140" as="targetPoint" />
          </mxGeometry>
        </mxCell>
        <mxCell id="p6qQuTiOkQc0RsWlat7f-39" value="게시글검색" style="rounded=1;whiteSpace=wrap;html=1;arcSize=40;fontColor=#000000;fillColor=#ffffc0;strokeColor=#ff0000;" vertex="1" parent="1">
          <mxGeometry x="532" y="310" width="120" height="40" as="geometry" />
        </mxCell>
        <mxCell id="p6qQuTiOkQc0RsWlat7f-41" value="&amp;lt;&amp;lt;extend&amp;gt;&amp;gt;" style="edgeStyle=none;rounded=0;orthogonalLoop=1;jettySize=auto;html=1;entryX=1;entryY=0.25;entryDx=0;entryDy=0;dashed=1;exitX=0;exitY=0.5;exitDx=0;exitDy=0;" edge="1" parent="1" source="p6qQuTiOkQc0RsWlat7f-12" target="p6qQuTiOkQc0RsWlat7f-6">
          <mxGeometry relative="1" as="geometry">
            <mxPoint x="290" y="330" as="sourcePoint" />
            <mxPoint x="290" y="280" as="targetPoint" />
          </mxGeometry>
        </mxCell>
        <mxCell id="p6qQuTiOkQc0RsWlat7f-42" value="&amp;lt;&amp;lt;extend&amp;gt;&amp;gt;" style="edgeStyle=none;rounded=0;orthogonalLoop=1;jettySize=auto;html=1;entryX=1;entryY=0.5;entryDx=0;entryDy=0;dashed=1;exitX=0;exitY=0.5;exitDx=0;exitDy=0;" edge="1" parent="1" source="p6qQuTiOkQc0RsWlat7f-39" target="p6qQuTiOkQc0RsWlat7f-6">
          <mxGeometry relative="1" as="geometry">
            <mxPoint x="440" y="310" as="sourcePoint" />
            <mxPoint x="350" y="340" as="targetPoint" />
          </mxGeometry>
        </mxCell>
        <mxCell id="p6qQuTiOkQc0RsWlat7f-44" value="&amp;lt;&amp;lt;extend&amp;gt;&amp;gt;" style="edgeStyle=none;rounded=0;orthogonalLoop=1;jettySize=auto;html=1;entryX=0.25;entryY=1;entryDx=0;entryDy=0;dashed=1;" edge="1" parent="1" source="p6qQuTiOkQc0RsWlat7f-9" target="p6qQuTiOkQc0RsWlat7f-5">
          <mxGeometry relative="1" as="geometry">
            <mxPoint x="290" y="330" as="sourcePoint" />
            <mxPoint x="290" y="280" as="targetPoint" />
          </mxGeometry>
        </mxCell>
        <mxCell id="p6qQuTiOkQc0RsWlat7f-45" value="&amp;lt;&amp;lt;extend&amp;gt;&amp;gt;" style="edgeStyle=none;rounded=0;orthogonalLoop=1;jettySize=auto;html=1;entryX=1;entryY=0.5;entryDx=0;entryDy=0;dashed=1;exitX=0;exitY=0.5;exitDx=0;exitDy=0;" edge="1" parent="1" source="p6qQuTiOkQc0RsWlat7f-10" target="p6qQuTiOkQc0RsWlat7f-9">
          <mxGeometry relative="1" as="geometry">
            <mxPoint x="285.3846153846155" y="390" as="sourcePoint" />
            <mxPoint x="260" y="280" as="targetPoint" />
          </mxGeometry>
        </mxCell>
        <mxCell id="p6qQuTiOkQc0RsWlat7f-46" value="&amp;lt;&amp;lt;extend&amp;gt;&amp;gt;" style="edgeStyle=none;rounded=0;orthogonalLoop=1;jettySize=auto;html=1;entryX=1;entryY=0.25;entryDx=0;entryDy=0;dashed=1;exitX=0;exitY=0.5;exitDx=0;exitDy=0;" edge="1" parent="1" source="p6qQuTiOkQc0RsWlat7f-11" target="p6qQuTiOkQc0RsWlat7f-8">
          <mxGeometry relative="1" as="geometry">
            <mxPoint x="410" y="450" as="sourcePoint" />
            <mxPoint x="350" y="410" as="targetPoint" />
          </mxGeometry>
        </mxCell>
        <mxCell id="p6qQuTiOkQc0RsWlat7f-47" value="&amp;lt;&amp;lt;extend&amp;gt;&amp;gt;" style="edgeStyle=none;rounded=0;orthogonalLoop=1;jettySize=auto;html=1;entryX=0.5;entryY=1;entryDx=0;entryDy=0;dashed=1;exitX=0.5;exitY=0;exitDx=0;exitDy=0;" edge="1" parent="1" source="p6qQuTiOkQc0RsWlat7f-8" target="p6qQuTiOkQc0RsWlat7f-9">
          <mxGeometry relative="1" as="geometry">
            <mxPoint x="410" y="520" as="sourcePoint" />
            <mxPoint x="350" y="470" as="targetPoint" />
          </mxGeometry>
        </mxCell>
        <mxCell id="p6qQuTiOkQc0RsWlat7f-48" style="edgeStyle=none;rounded=0;orthogonalLoop=1;jettySize=auto;html=1;entryX=0;entryY=0.25;entryDx=0;entryDy=0;exitX=1;exitY=1;exitDx=0;exitDy=0;exitPerimeter=0;" edge="1" parent="1" source="p6qQuTiOkQc0RsWlat7f-1" target="p6qQuTiOkQc0RsWlat7f-9">
          <mxGeometry relative="1" as="geometry">
            <mxPoint x="110" y="197.77777777777783" as="sourcePoint" />
            <mxPoint x="230" y="260" as="targetPoint" />
          </mxGeometry>
        </mxCell>
        <mxCell id="p6qQuTiOkQc0RsWlat7f-49" style="edgeStyle=none;rounded=0;orthogonalLoop=1;jettySize=auto;html=1;entryX=0;entryY=0.25;entryDx=0;entryDy=0;" edge="1" parent="1" target="p6qQuTiOkQc0RsWlat7f-8">
          <mxGeometry relative="1" as="geometry">
            <mxPoint x="110" y="220" as="sourcePoint" />
            <mxPoint x="230" y="400" as="targetPoint" />
          </mxGeometry>
        </mxCell>
        <mxCell id="p6qQuTiOkQc0RsWlat7f-51" style="edgeStyle=none;rounded=0;orthogonalLoop=1;jettySize=auto;html=1;entryX=1;entryY=0.25;entryDx=0;entryDy=0;exitX=0.12;exitY=0.5;exitDx=0;exitDy=0;exitPerimeter=0;" edge="1" parent="1" source="p6qQuTiOkQc0RsWlat7f-15" target="p6qQuTiOkQc0RsWlat7f-9">
          <mxGeometry relative="1" as="geometry">
            <mxPoint x="120" y="230" as="sourcePoint" />
            <mxPoint x="230" y="512" as="targetPoint" />
            <Array as="points">
              <mxPoint x="670" y="370" />
            </Array>
          </mxGeometry>
        </mxCell>
        <mxCell id="p6qQuTiOkQc0RsWlat7f-52" style="edgeStyle=none;rounded=0;orthogonalLoop=1;jettySize=auto;html=1;exitX=0.12;exitY=0.5;exitDx=0;exitDy=0;exitPerimeter=0;" edge="1" parent="1" target="p6qQuTiOkQc0RsWlat7f-8">
          <mxGeometry relative="1" as="geometry">
            <mxPoint x="802" y="205" as="sourcePoint" />
            <mxPoint x="350" y="400" as="targetPoint" />
            <Array as="points">
              <mxPoint x="680" y="440" />
            </Array>
          </mxGeometry>
        </mxCell>
      </root>
    </mxGraphModel>
  </diagram>
</mxfile>
